<svg id="Capa_1" data-name="Capa 1" xmlns="http://www.w3.org/2000/svg" viewBox="0 0 157.43 51.82"><defs><style>.cls-1{fill:#fff;}</style></defs><title>logo</title><path class="cls-1" d="M105.67,94.28a0.39,0.39,0,0,0,0,.77H184.6a0.39,0.39,0,1,0,0-.77H105.67Z" transform="translate(-27.57 -55.35)"/><path class="cls-1" d="M28.53,94.28a0.39,0.39,0,0,0,0,.77H79.77a0.39,0.39,0,1,0,0-.77H28.53Z" transform="translate(-27.57 -55.35)"/><path class="cls-1" d="M27.57,58.55H41A12.67,12.67,0,0,1,47,60q2.72,1.44,2.72,5.24A4.76,4.76,0,0,1,48,69a11.83,11.83,0,0,1-4.3,2.26A11.65,11.65,0,0,1,49.14,74a6.65,6.65,0,0,1,2.18,5.12,7.19,7.19,0,0,1-3.17,6.19q-3.17,2.26-8.7,2.26H28.62V86h2.06a0.63,0.63,0,0,0,.69-0.73v-19a25.45,25.45,0,0,0-.3-5.28,1.34,1.34,0,0,0-1.44-.94H27.57V58.55Zm14.3,12.29A4.37,4.37,0,0,0,44.13,69a5.45,5.45,0,0,0,.8-2.9A5.79,5.79,0,0,0,43.36,62a6.3,6.3,0,0,0-4.86-1.72l-1.26,0a0.52,0.52,0,0,0-.57.58v9.61q2.19,0,3.16,0A13.64,13.64,0,0,1,41.87,70.84Zm-5.21,7.55a36.58,36.58,0,0,0,.3,6.37q0.3,1,2,1a7.36,7.36,0,0,0,5.33-1.71A6.11,6.11,0,0,0,46,79.49a7.55,7.55,0,0,0-2-5.16Q42,72,37.53,72H36.66v6.35Z" transform="translate(-27.57 -55.35)"/><path class="cls-1" d="M71.43,84.82a12.68,12.68,0,0,1-8.91,3.47,8.48,8.48,0,0,1-6.81-2.83,10.77,10.77,0,0,1-2.42-7.26,11.71,11.71,0,0,1,2.58-7.67,8.53,8.53,0,0,1,7-3.15,7.34,7.34,0,0,1,5,1.73,14,14,0,0,1,3.4,4.83l-13,3.43a10.57,10.57,0,0,0,1.65,6,5.8,5.8,0,0,0,5.17,2.44,8.3,8.3,0,0,0,3-.52,10.31,10.31,0,0,0,2.7-1.58Zm-12.89-9,7.62-2.06a17.12,17.12,0,0,0-1.78-3.48,2.88,2.88,0,0,0-2.46-1.39q-1.91,0-2.8,2.37A13.35,13.35,0,0,0,58.24,76Z" transform="translate(-27.57 -55.35)"/><path class="cls-1" d="M79.48,79.84a32.17,32.17,0,0,0,.25,5.23,1.2,1.2,0,0,0,1.21,1.12h2v1.38H72.22V86.19h1.65a1.28,1.28,0,0,0,.64-0.11,0.72,0.72,0,0,0,.18-0.62V66.14a47.84,47.84,0,0,0-.29-6.83c-0.2-1.05-.6-1.58-1.21-1.58H71.26V56.36q2.05-.18,4-0.41c1.29-.15,2.71-0.35,4.23-0.59V79.84Z" transform="translate(-27.57 -55.35)"/><path class="cls-1" d="M92.27,82.13a12,12,0,0,1-2.88-.33A8.85,8.85,0,0,0,88.5,83a1.69,1.69,0,0,0-.25.77,1.33,1.33,0,0,0,1.1,1.27,13,13,0,0,0,3.66.36,21.88,21.88,0,0,1,7.54,1.1q2.92,1.1,2.93,5.12a6.25,6.25,0,0,1-3,5.2Q97.58,99,91.77,99q-5.21,0-7.22-1.78a4.94,4.94,0,0,1-2-3.57,3.91,3.91,0,0,1,1.33-3.09A10.82,10.82,0,0,1,87.3,88.6a5.61,5.61,0,0,1-1.74-1.09,2.22,2.22,0,0,1-.6-1.64,3.21,3.21,0,0,1,.85-2.12q0.85-1,2.13-2.4A6.84,6.84,0,0,1,85,78.93a6.36,6.36,0,0,1-1-3.61,7.44,7.44,0,0,1,2.51-5.8,8.82,8.82,0,0,1,6.12-2.26,7.83,7.83,0,0,1,1.39.1c0.38,0.07,1,.2,1.76.39s1.48,0.33,2.06.41a15.93,15.93,0,0,0,2.24.13,1.72,1.72,0,0,0,1.42-.52,1.11,1.11,0,0,1,.64-0.52,0.4,0.4,0,0,1,.36.14,1,1,0,0,1,.14.32,11.17,11.17,0,0,1-.23,1.73,0.87,0.87,0,0,1-.83.85c-0.27,0-.63,0-1.05,0L99,70.11a6.87,6.87,0,0,1,1.6,4.53A6.77,6.77,0,0,1,98.12,80,8.72,8.72,0,0,1,92.27,82.13ZM93.83,90l-2.15-.19a11.81,11.81,0,0,1-2.19-.42,5.32,5.32,0,0,0-2.37,1.37,3.25,3.25,0,0,0-.87,2.33,3.66,3.66,0,0,0,1.85,3.18,8.65,8.65,0,0,0,4.82,1.21,10.66,10.66,0,0,0,4.66-1,3.42,3.42,0,0,0,2.19-3.24,2.51,2.51,0,0,0-1.53-2.49A10.81,10.81,0,0,0,93.83,90ZM93,80.62a2.46,2.46,0,0,0,2.35-1.34A6.64,6.64,0,0,0,96,76.14a12,12,0,0,0-1-4.89A3.39,3.39,0,0,0,91.73,69a2.57,2.57,0,0,0-2.51,1.32,7.21,7.21,0,0,0-.68,3.34,10.34,10.34,0,0,0,1.12,4.69A3.55,3.55,0,0,0,93,80.62Z" transform="translate(-27.57 -55.35)"/><path class="cls-1" d="M112.43,71.48q1.87-2,3-3.05a4.15,4.15,0,0,1,2.95-1,3.08,3.08,0,0,1,2.24,1l-0.55,3c-0.12.79-.35,1.19-0.69,1.19a1.69,1.69,0,0,1-.78-0.78,2.18,2.18,0,0,0-1.92-.78,4.22,4.22,0,0,0-2.17.55,11.43,11.43,0,0,0-2.07,1.64v6.71a32.29,32.29,0,0,0,.25,5.22,1.2,1.2,0,0,0,1.21,1.12h2.37v1.38h-11.1V86.19h1.64a1.28,1.28,0,0,0,.64-0.11,0.71,0.71,0,0,0,.18-0.62V76.14q0-3.51-.11-5.07a1.39,1.39,0,0,0-1.44-1.55h-1.92V68.15a38.33,38.33,0,0,0,4.41-.3l3.86-.47v4.1Z" transform="translate(-27.57 -55.35)"/><path class="cls-1" d="M132.52,75.18V73.86a8.92,8.92,0,0,0-.5-3.58q-0.5-1-2.6-1a6.27,6.27,0,0,0-1.62.23,4.52,4.52,0,0,0-1.48.69,6.1,6.1,0,0,1-.8,3.29,2.55,2.55,0,0,1-2.3,1.28,1.62,1.62,0,0,1-1.12-.43,1.33,1.33,0,0,1-.48-1q0-2.51,3.35-4.2a15.07,15.07,0,0,1,6.83-1.69q3.65,0,4.59,1.23t0.93,5.16v7a7.07,7.07,0,0,0,.59,3.54,3.86,3.86,0,0,0,2.6,1.26l-1.78,2.69a8.56,8.56,0,0,1-3.29-.68,5,5,0,0,1-2.56-3,30.5,30.5,0,0,1-3.79,2.66,7,7,0,0,1-3.52,1.07,4.09,4.09,0,0,1-3.15-1.23,4.58,4.58,0,0,1-1.14-3.24,4.91,4.91,0,0,1,2.3-4.38,41.75,41.75,0,0,1,6.6-3.29Zm0,1.64-0.82.32a14,14,0,0,0-4,2.31,4.11,4.11,0,0,0-1.57,3.22q0,2.42,2.19,2.42a4.35,4.35,0,0,0,2.21-.59,9.26,9.26,0,0,0,2-1.65v-6Z" transform="translate(-27.57 -55.35)"/><path class="cls-1" d="M148.83,70.67a25.37,25.37,0,0,1,3.86-2.49,7.43,7.43,0,0,1,3.31-.8q5.52,0,5.52,6.3v6.16a31.68,31.68,0,0,0,.25,5.23A1.2,1.2,0,0,0,163,86.19h1.73v1.38H154.63V86.19h1.27a1.27,1.27,0,0,0,.64-0.11,0.71,0.71,0,0,0,.18-0.62V76a12.45,12.45,0,0,0-.55-4.36c-0.36-.9-1.31-1.34-2.82-1.34a5.21,5.21,0,0,0-2.31.57,9.53,9.53,0,0,0-2.21,1.52v7.48a31.78,31.78,0,0,0,.25,5.22,1.2,1.2,0,0,0,1.21,1.12h1.6v1.38H141.56V86.19h1.65a1.27,1.27,0,0,0,.64-0.11,0.7,0.7,0,0,0,.19-0.62V76.14q0-3.51-.11-5.07a1.39,1.39,0,0,0-1.44-1.55h-1.92V68.15a38.39,38.39,0,0,0,4.41-.3l3.86-.47v3.29Z" transform="translate(-27.57 -55.35)"/><path class="cls-1" d="M185,77.33a10.74,10.74,0,0,1-3.06,7.8,10.25,10.25,0,0,1-7.67,3.15,9.4,9.4,0,0,1-7.08-2.69,10,10,0,0,1-2.6-7.26,10.75,10.75,0,0,1,3.06-7.81,10.25,10.25,0,0,1,7.67-3.15,9.39,9.39,0,0,1,7.08,2.69A10,10,0,0,1,185,77.33Zm-9.5,9.44a3.9,3.9,0,0,0,3.29-1.64Q180,83.49,180,79.52q0-5.24-1.69-7.94a4.93,4.93,0,0,0-4.24-2.69A3.54,3.54,0,0,0,170.51,71a12.82,12.82,0,0,0-.93,5.18q0,5.2,1.71,7.89A5,5,0,0,0,175.5,86.77Z" transform="translate(-27.57 -55.35)"/><path class="cls-1" d="M89.33,56.09H88.82a0.16,0.16,0,0,0-.17.18v3.84A4.19,4.19,0,0,0,89,61.92a1.57,1.57,0,0,0,1.58.74A2.09,2.09,0,0,0,92.21,62a2.57,2.57,0,0,0,.57-1.79V58a10.28,10.28,0,0,0-.06-1.35,1,1,0,0,0-.14-0.49,0.56,0.56,0,0,0-.32-0.06H91.78V55.71h2.13v0.38H93.6l-0.3,0a0.12,0.12,0,0,0-.05.13v4a2.66,2.66,0,0,1-.88,2.18,3.22,3.22,0,0,1-2.1.72A3,3,0,0,1,88,62.48a2.52,2.52,0,0,1-.67-1.8v-3a6.37,6.37,0,0,0-.07-1.32,0.34,0.34,0,0,0-.36-0.24H86.37V55.71h3v0.38Z" transform="translate(-27.57 -55.35)"/><path class="cls-1" d="M101.25,60.9V58a10.48,10.48,0,0,0-.06-1.35,1,1,0,0,0-.14-0.49,0.56,0.56,0,0,0-.32-0.06h-0.46V55.71h2.13v0.38h-0.32l-0.3,0a0.13,0.13,0,0,0-.05.13V63a0.11,0.11,0,0,1-.12.14,0.9,0.9,0,0,1-.36-0.3l-5-5.73v3.17c0,0.34,0,.68,0,1a6,6,0,0,0,.06.87,0.78,0.78,0,0,0,.14.42,0.54,0.54,0,0,0,.32.06h0.46V63H95.08V62.59H95.4a1.38,1.38,0,0,0,.3,0,0.12,0.12,0,0,0,.05-0.13v-5.2a1.64,1.64,0,0,0-.19-0.82,0.57,0.57,0,0,0-.51-0.33H94.72V55.71h2Z" transform="translate(-27.57 -55.35)"/><path class="cls-1" d="M105.75,61a6.34,6.34,0,0,0,.08,1.32,0.33,0.33,0,0,0,.36.23h0.52V63h-3V62.59h0.51a0.16,0.16,0,0,0,.17-0.18V57.64a6.4,6.4,0,0,0-.07-1.32,0.34,0.34,0,0,0-.36-0.24h-0.52V55.71h3v0.38h-0.51a0.16,0.16,0,0,0-.17.18V61Z" transform="translate(-27.57 -55.35)"/><path class="cls-1" d="M114.71,56.09h-0.53a0.09,0.09,0,0,0-.08,0,2.55,2.55,0,0,0-.11.26L111.28,63a0.28,0.28,0,0,1-.17.2,0.17,0.17,0,0,1-.14-0.13l-2.39-5.65a8.91,8.91,0,0,0-.55-1.13,0.45,0.45,0,0,0-.37-0.24H107.3V55.71h2.82v0.38h-0.48c-0.13,0-.19,0-0.19.08a2.86,2.86,0,0,0,.16.4c0.11,0.25.2,0.46,0.28,0.64l1.66,3.9,1.36-3.25q0.14-.34.32-0.88a2.74,2.74,0,0,0,.18-0.73c0-.11-0.09-0.17-0.28-0.17h-0.61V55.71h2.18v0.38Z" transform="translate(-27.57 -55.35)"/><path class="cls-1" d="M115.71,62.59h0.52a0.16,0.16,0,0,0,.17-0.18V57.64a6.35,6.35,0,0,0-.08-1.32,0.33,0.33,0,0,0-.36-0.24h-0.52V55.71H121c-0.05.48-.09,0.8-0.12,0.95s-0.07.22-.14,0.22-0.18-.09-0.18-0.25a0.58,0.58,0,0,0-.5-0.32,5.14,5.14,0,0,0-1.41-.15h-0.82a0.13,0.13,0,0,0-.15.15v2.51h1.06a3.43,3.43,0,0,0,1.05-.09,0.37,0.37,0,0,0,.2-0.38v-0.4h0.35v2H120V59.54a0.26,0.26,0,0,0-.22-0.25,4.19,4.19,0,0,0-1-.07h-1.06v0.83a19.11,19.11,0,0,0,.06,2.13,0.36,0.36,0,0,0,.37.34h0.4a11,11,0,0,0,1.6-.1A1.12,1.12,0,0,0,121,62a0.49,0.49,0,0,1,.25-0.28,0.12,0.12,0,0,1,.13.14,2.15,2.15,0,0,1-.09.38l-0.21.71h-5.37V62.59Z" transform="translate(-27.57 -55.35)"/><path class="cls-1" d="M122.66,63V62.59h0.52a0.16,0.16,0,0,0,.17-0.18V57.64a6.37,6.37,0,0,0-.07-1.32,0.34,0.34,0,0,0-.36-0.24H122.4V55.71h3.34a2.48,2.48,0,0,1,1.76.59,1.83,1.83,0,0,1,.63,1.37,1.66,1.66,0,0,1-.45,1.2,2,2,0,0,1-1.19.57l1.11,1.67a8.73,8.73,0,0,0,.73,1,2.21,2.21,0,0,0,.44.41,1,1,0,0,0,.45.08V63h-1.3l-0.36,0a0.62,0.62,0,0,1-.3-0.15,5.82,5.82,0,0,1-.73-1c-0.38-.61-0.77-1.31-1.17-2.09h-0.7V61a6.44,6.44,0,0,0,.07,1.32,0.33,0.33,0,0,0,.36.23h0.51V63h-3Zm2-3.68h0.41a2.06,2.06,0,0,0,1.24-.35,1.24,1.24,0,0,0,.48-1.08,1.8,1.8,0,0,0-.42-1.2,1.32,1.32,0,0,0-1.06-.51h-0.5a0.13,0.13,0,0,0-.15.15v3Z" transform="translate(-27.57 -55.35)"/><path class="cls-1" d="M130.1,57.61a1.76,1.76,0,0,1,.83-1.54,3.3,3.3,0,0,1,1.89-.56,5.9,5.9,0,0,1,.75,0,2.91,2.91,0,0,1,.65.18l0.06,0.94a0.14,0.14,0,0,1-.16.16c-0.08,0-.13-0.08-0.17-0.26a0.68,0.68,0,0,0-.48-0.42,2.23,2.23,0,0,0-.8-0.16,1.81,1.81,0,0,0-1.06.32,1,1,0,0,0-.46.9,1.26,1.26,0,0,0,.92,1.12l1.83,0.79a2,2,0,0,1,1,1.79,2,2,0,0,1-.8,1.63,3.19,3.19,0,0,1-2.09.66,5.4,5.4,0,0,1-1.87-.33c0-.27-0.09-0.5-0.13-0.71a3.14,3.14,0,0,1-.06-0.37,0.16,0.16,0,0,1,.17-0.19,0.15,0.15,0,0,1,.13,0,1.89,1.89,0,0,1,.13.33,1,1,0,0,0,.64.52,2.71,2.71,0,0,0,1.07.23,2.1,2.1,0,0,0,1.25-.38,1.23,1.23,0,0,0,.53-1.06,1.31,1.31,0,0,0-.93-1.2l-1.82-.79A1.86,1.86,0,0,1,130.1,57.61Z" transform="translate(-27.57 -55.35)"/><path class="cls-1" d="M138.35,61a6.43,6.43,0,0,0,.07,1.32,0.33,0.33,0,0,0,.36.23h0.52V63h-3V62.59h0.51a0.16,0.16,0,0,0,.17-0.18V57.64a6.42,6.42,0,0,0-.07-1.32,0.34,0.34,0,0,0-.36-0.24h-0.52V55.71h3v0.38h-0.52a0.16,0.16,0,0,0-.17.18V61Z" transform="translate(-27.57 -55.35)"/><path class="cls-1" d="M140.52,62.59H141a0.16,0.16,0,0,0,.17-0.18V57.64a6.39,6.39,0,0,0-.08-1.32,0.34,0.34,0,0,0-.36-0.24h-0.52V55.71h3.51a3.8,3.8,0,0,1,2.83,1,3.36,3.36,0,0,1,1,2.45,4.12,4.12,0,0,1-.93,2.62,3.61,3.61,0,0,1-3,1.18h-3.13V62.59Zm2.61-6.44h-0.4a0.16,0.16,0,0,0-.19.15v3.74a19.16,19.16,0,0,0,.06,2.13,0.36,0.36,0,0,0,.37.34,3.45,3.45,0,0,0,2.32-.75,2.63,2.63,0,0,0,.88-2.12,3.6,3.6,0,0,0-.87-2.57A2.85,2.85,0,0,0,143.14,56.16Z" transform="translate(-27.57 -55.35)"/><path class="cls-1" d="M150.43,60.34q-0.31.81-.48,1.3a2.53,2.53,0,0,0-.17.7,0.23,0.23,0,0,0,.07.2,0.46,0.46,0,0,0,.25.05h0.65V63h-2.32V62.59h0.37a0.29,0.29,0,0,0,.3-0.21l2.83-6.71,0.5-.11a2.67,2.67,0,0,1,.42-0.07,0.12,0.12,0,0,1,.11.15,0.28,0.28,0,0,1-.11.16,0.3,0.3,0,0,0-.11.23,5.78,5.78,0,0,0,.31,1.08q0.31,0.91.76,2.13l0.78,2.11a5.42,5.42,0,0,0,.46,1.06,0.5,0.5,0,0,0,.42.18h0.27V63h-2.88V62.59h0.51c0.14,0,.21,0,0.21-0.1a0.55,0.55,0,0,0,0-.17l-0.68-2h-2.43Zm1.31-3.16q-0.28.6-.47,1.07l-0.66,1.64h2.07Z" transform="translate(-27.57 -55.35)"/><path class="cls-1" d="M156.74,62.59h0.52a0.16,0.16,0,0,0,.17-0.18V57.64a6.5,6.5,0,0,0-.07-1.32,0.34,0.34,0,0,0-.36-0.24h-0.52V55.71H160a3.8,3.8,0,0,1,2.83,1,3.36,3.36,0,0,1,1,2.45,4.12,4.12,0,0,1-.93,2.62,3.62,3.62,0,0,1-3,1.18h-3.13V62.59Zm2.61-6.44h-0.4a0.16,0.16,0,0,0-.19.15v3.74a19.31,19.31,0,0,0,.06,2.13,0.36,0.36,0,0,0,.37.34,3.45,3.45,0,0,0,2.32-.75,2.63,2.63,0,0,0,.88-2.12,3.6,3.6,0,0,0-.87-2.57A2.86,2.86,0,0,0,159.35,56.16Z" transform="translate(-27.57 -55.35)"/><path class="cls-1" d="M168.39,62.59h0.52a0.16,0.16,0,0,0,.17-0.18V57.64a6.26,6.26,0,0,0-.08-1.32,0.33,0.33,0,0,0-.36-0.24h-0.52V55.71h3.51a3.8,3.8,0,0,1,2.83,1,3.36,3.36,0,0,1,1,2.45,4.12,4.12,0,0,1-.93,2.62,3.62,3.62,0,0,1-3,1.18h-3.13V62.59ZM171,56.16h-0.41a0.16,0.16,0,0,0-.19.15v3.74a19.35,19.35,0,0,0,.06,2.13,0.36,0.36,0,0,0,.37.34,3.45,3.45,0,0,0,2.32-.75,2.63,2.63,0,0,0,.88-2.12,3.6,3.6,0,0,0-.87-2.57A2.85,2.85,0,0,0,171,56.16Z" transform="translate(-27.57 -55.35)"/><path class="cls-1" d="M176.8,62.59h0.52a0.16,0.16,0,0,0,.17-0.18V57.64a6.54,6.54,0,0,0-.07-1.32,0.34,0.34,0,0,0-.36-0.24h-0.52V55.71h5.59c-0.05.48-.09,0.8-0.11,0.95s-0.07.22-.14,0.22-0.18-.09-0.18-0.25a0.58,0.58,0,0,0-.5-0.32,5.15,5.15,0,0,0-1.41-.15H179a0.13,0.13,0,0,0-.15.15v2.51h1.06a3.42,3.42,0,0,0,1.05-.09,0.37,0.37,0,0,0,.2-0.38v-0.4h0.35v2h-0.35V59.54a0.26,0.26,0,0,0-.22-0.25,4.18,4.18,0,0,0-1-.07h-1.06v0.83a19.06,19.06,0,0,0,.06,2.13,0.36,0.36,0,0,0,.37.34h0.4a11,11,0,0,0,1.6-.1,1.11,1.11,0,0,0,.84-0.39,0.49,0.49,0,0,1,.25-0.28,0.12,0.12,0,0,1,.13.14,2.05,2.05,0,0,1-.09.38l-0.21.71H176.8V62.59Z" transform="translate(-27.57 -55.35)"/><path class="cls-1" d="M31,101.8h2.41a2.27,2.27,0,0,1,1.08.26A1,1,0,0,1,35,103a0.85,0.85,0,0,1-.31.68,2.12,2.12,0,0,1-.77.41,2.1,2.1,0,0,1,1,.49,1.2,1.2,0,0,1,.39.92,1.29,1.29,0,0,1-.57,1.11,2.65,2.65,0,0,1-1.56.4H31.18v-0.27h0.37a0.11,0.11,0,0,0,.12-0.13v-3.42a4.62,4.62,0,0,0-.05-0.95,0.24,0.24,0,0,0-.26-0.17H31V101.8ZM33.56,104a0.78,0.78,0,0,0,.4-0.33,1,1,0,0,0,.14-0.52,1,1,0,0,0-.28-0.72,1.12,1.12,0,0,0-.87-0.31H32.73a0.09,0.09,0,0,0-.1.1V104h0.57A2.16,2.16,0,0,1,33.56,104Zm-0.94,1.35a6.44,6.44,0,0,0,.05,1.15,0.32,0.32,0,0,0,.36.18,1.33,1.33,0,0,0,1-.31,1.1,1.1,0,0,0,.32-0.83,1.36,1.36,0,0,0-.37-0.93,1.48,1.48,0,0,0-1.16-.41H32.63v1.14Z" transform="translate(-27.57 -55.35)"/><path class="cls-1" d="M39.84,102.07H39.47a0.11,0.11,0,0,0-.12.13V105a3,3,0,0,0,.26,1.3,1.12,1.12,0,0,0,1.13.53,1.5,1.5,0,0,0,1.17-.45,1.85,1.85,0,0,0,.41-1.28v-1.63a7.43,7.43,0,0,0,0-1,0.71,0.71,0,0,0-.1-0.35,0.4,0.4,0,0,0-.23,0H41.6V101.8h1.53v0.27H42.69a0.09,0.09,0,0,0,0,.09v2.9a1.91,1.91,0,0,1-.63,1.57,2.31,2.31,0,0,1-1.51.52,2.18,2.18,0,0,1-1.64-.51,1.8,1.8,0,0,1-.48-1.29v-2.18a4.67,4.67,0,0,0-.05-1,0.24,0.24,0,0,0-.26-0.17H37.71V101.8h2.13v0.27Z" transform="translate(-27.57 -55.35)"/><path class="cls-1" d="M45.75,106.74h0.37a0.11,0.11,0,0,0,.12-0.13v-3.42a4.68,4.68,0,0,0-.05-0.95,0.24,0.24,0,0,0-.26-0.17H45.56V101.8h4q-0.06.52-.08,0.68c0,0.11,0,.16-0.1.16s-0.13-.06-0.13-0.18a0.42,0.42,0,0,0-.36-0.23,3.72,3.72,0,0,0-1-.11H47.3a0.1,0.1,0,0,0-.11.11V104H48a2.56,2.56,0,0,0,.76-0.07,0.27,0.27,0,0,0,.14-0.27V103.4H49.1v1.45H48.86v-0.3a0.19,0.19,0,0,0-.16-0.18,3.1,3.1,0,0,0-.75-0.05H47.19v0.6a13.66,13.66,0,0,0,0,1.53,0.26,0.26,0,0,0,.27.25h0.29a7.83,7.83,0,0,0,1.15-.07,0.8,0.8,0,0,0,.61-0.28,0.35,0.35,0,0,1,.18-0.21,0.08,0.08,0,0,1,.09.1,1.46,1.46,0,0,1-.06.27L49.6,107H45.75v-0.27Z" transform="translate(-27.57 -55.35)"/><path class="cls-1" d="M56.91,105.53v-2.09a7.5,7.5,0,0,0,0-1,0.71,0.71,0,0,0-.1-0.35,0.4,0.4,0,0,0-.23,0H56.21V101.8h1.53v0.27H57.3a0.09,0.09,0,0,0,0,.09V107a0.08,0.08,0,0,1-.09.1,0.68,0.68,0,0,1-.26-0.21l-3.61-4.12V105c0,0.25,0,.49,0,0.74a4.3,4.3,0,0,0,0,.62,0.57,0.57,0,0,0,.1.3,0.4,0.4,0,0,0,.23,0H54V107H52.48v-0.27h0.45a0.09,0.09,0,0,0,0-.09V102.9a1.18,1.18,0,0,0-.14-0.59,0.41,0.41,0,0,0-.37-0.24H52.22V101.8h1.42Z" transform="translate(-27.57 -55.35)"/><path class="cls-1" d="M60.31,104.55a2.9,2.9,0,0,1,.78-2.07,2.66,2.66,0,0,1,2-.83,2.62,2.62,0,0,1,1.92.71,2.57,2.57,0,0,1,.72,1.91,2.9,2.9,0,0,1-.78,2.07,2.66,2.66,0,0,1-2,.83,2.62,2.62,0,0,1-1.92-.71A2.57,2.57,0,0,1,60.31,104.55Zm4.5,0.17a3.08,3.08,0,0,0-.61-2.1,1.77,1.77,0,0,0-1.32-.67,1.43,1.43,0,0,0-1.17.56,2.52,2.52,0,0,0-.44,1.6,3.07,3.07,0,0,0,.61,2.1,1.77,1.77,0,0,0,1.32.67,1.43,1.43,0,0,0,1.17-.55A2.52,2.52,0,0,0,64.81,104.72Z" transform="translate(-27.57 -55.35)"/><path class="cls-1" d="M68.48,103.16a1.27,1.27,0,0,1,.59-1.11,2.37,2.37,0,0,1,1.36-.4,4.43,4.43,0,0,1,.54,0,2,2,0,0,1,.47.13l0,0.67a0.1,0.1,0,0,1-.12.11c-0.05,0-.1-0.06-0.12-0.19a0.49,0.49,0,0,0-.35-0.3,1.58,1.58,0,0,0-.58-0.12,1.3,1.3,0,0,0-.76.23,0.75,0.75,0,0,0-.33.65,0.91,0.91,0,0,0,.67.81l1.31,0.57a1.43,1.43,0,0,1,.7,1.29,1.45,1.45,0,0,1-.57,1.17,2.28,2.28,0,0,1-1.5.47,3.88,3.88,0,0,1-1.35-.24c0-.19-0.06-0.36-0.09-0.51a2.28,2.28,0,0,1,0-.26,0.12,0.12,0,0,1,.12-0.14,0.11,0.11,0,0,1,.09,0,1.25,1.25,0,0,1,.09.24,0.75,0.75,0,0,0,.46.37,2,2,0,0,0,.77.17,1.52,1.52,0,0,0,.9-0.27,0.89,0.89,0,0,0,.38-0.76,0.94,0.94,0,0,0-.67-0.86l-1.31-.57A1.33,1.33,0,0,1,68.48,103.16Z" transform="translate(-27.57 -55.35)"/><path class="cls-1" d="M79.88,105.13q-0.22.58-.34,0.93a1.81,1.81,0,0,0-.12.51,0.16,0.16,0,0,0,.05.14,0.32,0.32,0,0,0,.18,0h0.47V107H78.45v-0.27h0.26a0.21,0.21,0,0,0,.21-0.15l2-4.82,0.36-.08,0.3,0c0.05,0,.08,0,0.08.11a0.2,0.2,0,0,1-.08.11,0.22,0.22,0,0,0-.08.17,4.23,4.23,0,0,0,.22.77c0.15,0.43.33,0.94,0.55,1.53l0.56,1.51a3.88,3.88,0,0,0,.33.76,0.36,0.36,0,0,0,.3.13h0.2V107H81.62v-0.27H82c0.1,0,.15,0,0.15-0.07a0.4,0.4,0,0,0,0-.12l-0.49-1.42H79.88Zm0.94-2.27q-0.21.43-.34,0.77L80,104.8h1.49Z" transform="translate(-27.57 -55.35)"/><path class="cls-1" d="M87.61,105.63a4.69,4.69,0,0,0,.05.95,0.24,0.24,0,0,0,.26.17h0.37V107H86.17v-0.27h0.37a0.11,0.11,0,0,0,.12-0.13v-3.42a4.61,4.61,0,0,0-.05-0.95,0.24,0.24,0,0,0-.26-0.17H86V101.8H88.1v0.27H87.73a0.11,0.11,0,0,0-.12.13v3.42Z" transform="translate(-27.57 -55.35)"/><path class="cls-1" d="M90.94,107v-0.27h0.37a0.11,0.11,0,0,0,.12-0.13v-3.42a4.7,4.7,0,0,0-.05-0.95,0.24,0.24,0,0,0-.26-0.17H90.75V101.8h2.4a1.78,1.78,0,0,1,1.27.43,1.31,1.31,0,0,1,.45,1,1.18,1.18,0,0,1-.32.86,1.43,1.43,0,0,1-.85.41l0.79,1.2a6.59,6.59,0,0,0,.53.71,1.62,1.62,0,0,0,.32.29,0.71,0.71,0,0,0,.32.06V107H94.47a0.43,0.43,0,0,1-.21-0.11,4.3,4.3,0,0,1-.52-0.75q-0.41-.66-0.84-1.5H92.38v1a4.62,4.62,0,0,0,.05.95,0.24,0.24,0,0,0,.26.17h0.37V107H90.94Zm1.44-2.64h0.3a1.51,1.51,0,0,0,.9-0.25,0.89,0.89,0,0,0,.35-0.77,1.3,1.3,0,0,0-.31-0.86,1,1,0,0,0-.77-0.37H92.49a0.1,0.1,0,0,0-.11.11v2.14Z" transform="translate(-27.57 -55.35)"/><path class="cls-1" d="M98,106.74h0.37a0.11,0.11,0,0,0,.12-0.13v-3.42a4.54,4.54,0,0,0-.05-0.95,0.24,0.24,0,0,0-.26-0.17H97.81V101.8h4q-0.06.52-.08,0.68c0,0.11,0,.16-0.1.16s-0.13-.06-0.13-0.18a0.42,0.42,0,0,0-.36-0.23,3.73,3.73,0,0,0-1-.11H99.55a0.1,0.1,0,0,0-.11.11V104h0.76A2.57,2.57,0,0,0,101,104a0.27,0.27,0,0,0,.14-0.27V103.4h0.25v1.45h-0.25v-0.3a0.19,0.19,0,0,0-.16-0.18,3.11,3.11,0,0,0-.75-0.05H99.44v0.6a13.44,13.44,0,0,0,0,1.53,0.25,0.25,0,0,0,.27.25H100a7.82,7.82,0,0,0,1.15-.07,0.8,0.8,0,0,0,.61-0.28,0.35,0.35,0,0,1,.18-0.21,0.08,0.08,0,0,1,.09.1,1.49,1.49,0,0,1-.07.27l-0.15.51H98v-0.27Z" transform="translate(-27.57 -55.35)"/><path class="cls-1" d="M104.8,103.16a1.27,1.27,0,0,1,.6-1.11,2.37,2.37,0,0,1,1.36-.4,4.47,4.47,0,0,1,.54,0,2,2,0,0,1,.47.13l0,0.67a0.1,0.1,0,0,1-.12.11c-0.05,0-.1-0.06-0.12-0.19a0.49,0.49,0,0,0-.35-0.3,1.59,1.59,0,0,0-.58-0.12,1.3,1.3,0,0,0-.76.23,0.75,0.75,0,0,0-.33.65,0.91,0.91,0,0,0,.67.81l1.31,0.57a1.51,1.51,0,0,1,.12,2.46,2.27,2.27,0,0,1-1.5.47,3.88,3.88,0,0,1-1.35-.24c0-.19-0.06-0.36-0.09-0.51a2,2,0,0,1,0-.26,0.12,0.12,0,0,1,.12-0.14,0.11,0.11,0,0,1,.09,0,1.17,1.17,0,0,1,.09.24,0.75,0.75,0,0,0,.46.37,2,2,0,0,0,.77.17,1.52,1.52,0,0,0,.9-0.27,0.88,0.88,0,0,0,.38-0.76,0.94,0.94,0,0,0-.67-0.86l-1.31-.57A1.34,1.34,0,0,1,104.8,103.16Z" transform="translate(-27.57 -55.35)"/><path class="cls-1" d="M114.58,104.88h0.62l0.24,0,0.11,0,0,0,0,0.07-0.25.55h-0.93a3.75,3.75,0,0,0-.88.05l-0.1,0,0,0,0-.14,0.25-.5h0.91Z" transform="translate(-27.57 -55.35)"/><path class="cls-1" d="M121.81,105.13q-0.22.58-.34,0.93a1.82,1.82,0,0,0-.12.51,0.16,0.16,0,0,0,.05.14,0.33,0.33,0,0,0,.18,0H122V107h-1.66v-0.27h0.26a0.21,0.21,0,0,0,.21-0.15l2-4.82,0.36-.08,0.3,0a0.09,0.09,0,0,1,.08.11,0.2,0.2,0,0,1-.08.11,0.22,0.22,0,0,0-.08.17,4.3,4.3,0,0,0,.22.77c0.15,0.43.33,0.94,0.55,1.53l0.56,1.51a4,4,0,0,0,.33.76,0.36,0.36,0,0,0,.3.13h0.2V107h-2.07v-0.27h0.37c0.1,0,.15,0,0.15-0.07a0.4,0.4,0,0,0,0-.12l-0.49-1.42h-1.75Zm0.94-2.27q-0.21.43-.34,0.77l-0.47,1.18h1.48Z" transform="translate(-27.57 -55.35)"/><path class="cls-1" d="M128.1,107v-0.27h0.37a0.11,0.11,0,0,0,.12-0.13v-3.42a4.65,4.65,0,0,0-.05-0.95,0.24,0.24,0,0,0-.26-0.17h-0.37V101.8h2.4a1.78,1.78,0,0,1,1.27.43,1.31,1.31,0,0,1,.45,1,1.19,1.19,0,0,1-.32.86,1.43,1.43,0,0,1-.85.41l0.8,1.2a6.66,6.66,0,0,0,.53.71,1.65,1.65,0,0,0,.31.29,0.72,0.72,0,0,0,.33.06V107h-1.19a0.43,0.43,0,0,1-.21-0.11,4.32,4.32,0,0,1-.52-0.75q-0.41-.66-0.84-1.5h-0.51v1a4.77,4.77,0,0,0,.05.95,0.24,0.24,0,0,0,.26.17h0.37V107H128.1Zm1.44-2.64h0.3a1.5,1.5,0,0,0,.9-0.25,0.89,0.89,0,0,0,.35-0.77,1.29,1.29,0,0,0-.31-0.86,1,1,0,0,0-.77-0.37h-0.36a0.1,0.1,0,0,0-.11.11v2.14Z" transform="translate(-27.57 -55.35)"/><path class="cls-1" d="M138.22,104.6h2.17v0.27H140c-0.09,0-.14,0-0.13.12v1.15a0.68,0.68,0,0,0,.06.33,0.48,0.48,0,0,1,.06.11,0.36,0.36,0,0,1-.29.22,5.68,5.68,0,0,1-.7.2c-0.27.06-.5,0.11-0.69,0.13a4,4,0,0,1-.55,0,2.66,2.66,0,0,1-1.94-.71,2.59,2.59,0,0,1-.72-1.94,2.56,2.56,0,0,1,1-2.1,3.59,3.59,0,0,1,2.32-.77,4.6,4.6,0,0,1,.81.07,2.84,2.84,0,0,1,.73.22,5.37,5.37,0,0,1-.11.62,0.15,0.15,0,0,1-.11.14c-0.08,0-.12-0.06-0.12-0.18a0.53,0.53,0,0,0-.37-0.35,2.11,2.11,0,0,0-1-.19,2.66,2.66,0,0,0-.85.17,2.08,2.08,0,0,0-.93.71,2.42,2.42,0,0,0-.43,1.54,2.85,2.85,0,0,0,.52,1.7,1.73,1.73,0,0,0,1.5.73,2,2,0,0,0,.89-0.19V106a4.65,4.65,0,0,0-.05-0.95,0.24,0.24,0,0,0-.26-0.17h-0.44V104.6Z" transform="translate(-27.57 -55.35)"/><path class="cls-1" d="M143.12,106.74h0.37a0.11,0.11,0,0,0,.12-0.13v-3.42a4.66,4.66,0,0,0-.05-0.95,0.24,0.24,0,0,0-.26-0.17h-0.37V101.8h4q-0.06.52-.08,0.68c0,0.11,0,.16-0.1.16s-0.13-.06-0.13-0.18a0.42,0.42,0,0,0-.36-0.23,3.73,3.73,0,0,0-1-.11h-0.59a0.1,0.1,0,0,0-.11.11V104h0.76a2.57,2.57,0,0,0,.76-0.07,0.27,0.27,0,0,0,.14-0.27V103.4h0.25v1.45h-0.25v-0.3a0.19,0.19,0,0,0-.16-0.18,3.11,3.11,0,0,0-.75-0.05h-0.76v0.6a13.6,13.6,0,0,0,0,1.53,0.26,0.26,0,0,0,.27.25h0.29a7.82,7.82,0,0,0,1.15-.07,0.8,0.8,0,0,0,.61-0.28,0.35,0.35,0,0,1,.18-0.21,0.08,0.08,0,0,1,.09.1,1.51,1.51,0,0,1-.06.27L147,107h-3.86v-0.27Z" transform="translate(-27.57 -55.35)"/><path class="cls-1" d="M154.29,105.53v-2.09a7.11,7.11,0,0,0,0-1,0.7,0.7,0,0,0-.1-0.35,0.4,0.4,0,0,0-.23,0h-0.33V101.8h1.53v0.27h-0.45a0.09,0.09,0,0,0,0,.09V107a0.08,0.08,0,0,1-.09.1,0.65,0.65,0,0,1-.26-0.21l-3.61-4.12V105c0,0.25,0,.49,0,0.74a4.36,4.36,0,0,0,0,.62,0.58,0.58,0,0,0,.1.3,0.4,0.4,0,0,0,.23,0h0.33V107h-1.53v-0.27h0.44a0.08,0.08,0,0,0,0-.09V102.9a1.19,1.19,0,0,0-.13-0.59,0.41,0.41,0,0,0-.37-0.24H149.6V101.8H151Z" transform="translate(-27.57 -55.35)"/><path class="cls-1" d="M161.28,107h-2.55v-0.27h0.62a0.11,0.11,0,0,0,.12-0.13v-4.49h-0.16a5.11,5.11,0,0,0-.92.08,0.69,0.69,0,0,0-.53.29,0.33,0.33,0,0,1-.18.21,0.09,0.09,0,0,1-.11-0.1l0.25-.8h4.23l0.25,0.8a0.09,0.09,0,0,1-.11.1,0.12,0.12,0,0,1-.08,0,0.91,0.91,0,0,1-.12-0.21,0.67,0.67,0,0,0-.5-0.25,5.12,5.12,0,0,0-.92-0.08h-0.16v3.5a4.72,4.72,0,0,0,.05.95,0.24,0.24,0,0,0,.26.17h0.55V107Z" transform="translate(-27.57 -55.35)"/><path class="cls-1" d="M166.34,105.63a4.63,4.63,0,0,0,.05.95,0.24,0.24,0,0,0,.26.17H167V107h-2.12v-0.27h0.37a0.11,0.11,0,0,0,.12-0.13v-3.42a4.62,4.62,0,0,0-.05-0.95,0.24,0.24,0,0,0-.26-0.17h-0.37V101.8h2.12v0.27h-0.37a0.11,0.11,0,0,0-.12.13v3.42Z" transform="translate(-27.57 -55.35)"/><path class="cls-1" d="M174.08,105.53v-2.09a7.26,7.26,0,0,0,0-1,0.71,0.71,0,0,0-.1-0.35,0.4,0.4,0,0,0-.23,0h-0.33V101.8h1.53v0.27h-0.45a0.09,0.09,0,0,0,0,.09V107a0.08,0.08,0,0,1-.09.1,0.67,0.67,0,0,1-.26-0.21l-3.61-4.12V105c0,0.25,0,.49,0,0.74a4.31,4.31,0,0,0,0,.62,0.57,0.57,0,0,0,.1.3,0.39,0.39,0,0,0,.23,0h0.33V107h-1.53v-0.27h0.45a0.08,0.08,0,0,0,0-.09V102.9a1.2,1.2,0,0,0-.13-0.59,0.41,0.41,0,0,0-.37-0.24H169.4V101.8h1.42Z" transform="translate(-27.57 -55.35)"/><path class="cls-1" d="M178.7,105.13c-0.15.39-.26,0.7-0.34,0.93a1.79,1.79,0,0,0-.12.51,0.16,0.16,0,0,0,.05.14,0.32,0.32,0,0,0,.18,0h0.47V107h-1.67v-0.27h0.26a0.21,0.21,0,0,0,.21-0.15l2-4.82,0.36-.08,0.3,0a0.09,0.09,0,0,1,.08.11,0.2,0.2,0,0,1-.08.11,0.23,0.23,0,0,0-.08.17,4.23,4.23,0,0,0,.22.77c0.15,0.43.33,0.94,0.54,1.53l0.56,1.51a4,4,0,0,0,.33.76,0.36,0.36,0,0,0,.3.13h0.2V107h-2.07v-0.27h0.37c0.1,0,.15,0,0.15-0.07a0.41,0.41,0,0,0,0-.12l-0.49-1.42H178.7Zm0.94-2.27q-0.21.43-.34,0.77l-0.47,1.18h1.48Z" transform="translate(-27.57 -55.35)"/></svg>